HIERARCHY
ROOT Hips
{
  OFFSET 5.80788e-005 67.184 3.4734
  CHANNELS 6 Xposition Yposition Zposition Zrotation Xrotation Yrotation
  JOINT Chest
  {
    OFFSET 0 8.7983 -4.7612
    CHANNELS 3 Zrotation Xrotation Yrotation
    JOINT Chest2
    {
      OFFSET 0 8.0291 0.4195
      CHANNELS 3 Zrotation Xrotation Yrotation
      JOINT Chest3
      {
        OFFSET 0 9.9351 -2.2114
        CHANNELS 3 Zrotation Xrotation Yrotation
        JOINT Neck
        {
          OFFSET 0 22.3885 -0.4656
          CHANNELS 3 Zrotation Xrotation Yrotation
          JOINT Head
          {
            OFFSET -0.0001 12.643 3.4389
            CHANNELS 3 Zrotation Xrotation Yrotation
            End Site
            {
              OFFSET 0.0001 17.6655 0.5274
            }
          }
        }
        JOINT LeftCollar
        {
          OFFSET 2.2603 21.606 7.4023
          CHANNELS 3 Zrotation Xrotation Yrotation
          JOINT LeftShoulder
          {
            OFFSET 13.5163 -1.1332 -5.0146
            CHANNELS 3 Zrotation Xrotation Yrotation
            JOINT LeftElbow
            {
              OFFSET -0.0995 -28.05 -0.2431
              CHANNELS 3 Zrotation Xrotation Yrotation
              JOINT LeftWrist
              {
                OFFSET 0.0679 -23.3996 -0.1402
                CHANNELS 3 Zrotation Xrotation Yrotation
                JOINT LeftFinger1
                {
                  OFFSET 0.7932 -9.069 2.5189
                  CHANNELS 3 Zrotation Xrotation Yrotation
                  JOINT LeftFinger11
                  {
                    OFFSET -0.8272 -3.3923 0.5977
                    CHANNELS 3 Zrotation Xrotation Yrotation
                    JOINT LeftFinger12
                    {
                      OFFSET -0.5649 -2.3158 0.4082
                      CHANNELS 3 Zrotation Xrotation Yrotation
                      End Site
                      {
                        OFFSET -0.4919 -1.6479 0.2673
                      }
                    }
                  }
                }
                JOINT LeftFinger2
                {
                  OFFSET 0.9159 -9.2044 0.2193
                  CHANNELS 3 Zrotation Xrotation Yrotation
                  JOINT LeftFinger21
                  {
                    OFFSET 0.0117 -4.1944 -0.0248
                    CHANNELS 3 Zrotation Xrotation Yrotation
                    JOINT LeftFinger22
                    {
                      OFFSET 0.0071 -2.3249 -0.0142
                      CHANNELS 3 Zrotation Xrotation Yrotation
                      End Site
                      {
                        OFFSET -0.1475 -2.0882 0.0028
                      }
                    }
                  }
                }
                JOINT LeftFinger3
                {
                  OFFSET 0.6113 -8.7231 -2.0637
                  CHANNELS 3 Zrotation Xrotation Yrotation
                  JOINT LeftFinger31
                  {
                    OFFSET -0.1927 -3.8059 -0.2383
                    CHANNELS 3 Zrotation Xrotation Yrotation
                    JOINT LeftFinger32
                    {
                      OFFSET -0.1091 -2.1688 -0.1362
                      CHANNELS 3 Zrotation Xrotation Yrotation
                      End Site
                      {
                        OFFSET -0.2358 -1.9176 -0.0906
                      }
                    }
                  }
                }
                JOINT LeftFinger4
                {
                  OFFSET -0.6151 -8.0947 -3.5641
                  CHANNELS 3 Zrotation Xrotation Yrotation
                  JOINT LeftFinger41
                  {
                    OFFSET -0.4882 -2.341 -0.6462
                    CHANNELS 3 Zrotation Xrotation Yrotation
                    JOINT LeftFinger42
                    {
                      OFFSET -0.3575 -1.7167 -0.4742
                      CHANNELS 3 Zrotation Xrotation Yrotation
                      End Site
                      {
                        OFFSET -0.4187 -1.5237 -0.3496
                      }
                    }
                  }
                }
                JOINT LeftFinger0
                {
                  OFFSET -1.42 -1.8761 1.4223
                  CHANNELS 3 Zrotation Xrotation Yrotation
                  JOINT LeftFinger01
                  {
                    OFFSET -1.1471 -3.4929 2.6334
                    CHANNELS 3 Zrotation Xrotation Yrotation
                    JOINT LeftFinger02
                    {
                      OFFSET -0.823 -2.3 1.6571
                      CHANNELS 3 Zrotation Xrotation Yrotation
                      End Site
                      {
                        OFFSET -0.5822 -1.6914 1.1582
                      }
                    }
                  }
                }
              }
            }
          }
        }
        JOINT RightCollar
        {
          OFFSET -2.2603 21.606 7.4023
          CHANNELS 3 Zrotation Xrotation Yrotation
          JOINT RightShoulder
          {
            OFFSET -13.5187 -1.1334 -5.0155
            CHANNELS 3 Zrotation Xrotation Yrotation
            JOINT RightElbow
            {
              OFFSET 0.0994 -28.0499 -0.2431
              CHANNELS 3 Zrotation Xrotation Yrotation
              JOINT RightWrist
              {
                OFFSET -0.0679 -23.3996 -0.1402
                CHANNELS 3 Zrotation Xrotation Yrotation
                JOINT RightFinger1
                {
                  OFFSET -0.7932 -9.0691 2.5189
                  CHANNELS 3 Zrotation Xrotation Yrotation
                  JOINT RightFinger11
                  {
                    OFFSET 0.8272 -3.3923 0.5977
                    CHANNELS 3 Zrotation Xrotation Yrotation
                    JOINT RightFinger12
                    {
                      OFFSET 0.565 -2.3158 0.4082
                      CHANNELS 3 Zrotation Xrotation Yrotation
                      End Site
                      {
                        OFFSET 0.4919 -1.6479 0.2673
                      }
                    }
                  }
                }
                JOINT RightFinger2
                {
                  OFFSET -0.916 -9.2044 0.2193
                  CHANNELS 3 Zrotation Xrotation Yrotation
                  JOINT RightFinger21
                  {
                    OFFSET -0.0117 -4.1944 -0.0248
                    CHANNELS 3 Zrotation Xrotation Yrotation
                    JOINT RightFinger22
                    {
                      OFFSET -0.0071 -2.3249 -0.0142
                      CHANNELS 3 Zrotation Xrotation Yrotation
                      End Site
                      {
                        OFFSET 0.1475 -2.0882 0.0028
                      }
                    }
                  }
                }
                JOINT RightFinger3
                {
                  OFFSET -0.6113 -8.7231 -2.0637
                  CHANNELS 3 Zrotation Xrotation Yrotation
                  JOINT RightFinger31
                  {
                    OFFSET 0.1927 -3.8059 -0.2383
                    CHANNELS 3 Zrotation Xrotation Yrotation
                    JOINT RightFinger32
                    {
                      OFFSET 0.1091 -2.1688 -0.1362
                      CHANNELS 3 Zrotation Xrotation Yrotation
                      End Site
                      {
                        OFFSET 0.2358 -1.9176 -0.0906
                      }
                    }
                  }
                }
                JOINT RightFinger4
                {
                  OFFSET 0.6151 -8.0947 -3.564
                  CHANNELS 3 Zrotation Xrotation Yrotation
                  JOINT RightFinger41
                  {
                    OFFSET 0.4882 -2.341 -0.6462
                    CHANNELS 3 Zrotation Xrotation Yrotation
                    JOINT RightFinger42
                    {
                      OFFSET 0.3574 -1.7166 -0.4742
                      CHANNELS 3 Zrotation Xrotation Yrotation
                      End Site
                      {
                        OFFSET 0.4187 -1.5237 -0.3496
                      }
                    }
                  }
                }
                JOINT RightFinger0
                {
                  OFFSET 1.4199 -1.8761 1.4221
                  CHANNELS 3 Zrotation Xrotation Yrotation
                  JOINT RightFinger01
                  {
                    OFFSET 1.1472 -3.4929 2.6336
                    CHANNELS 3 Zrotation Xrotation Yrotation
                    JOINT RightFinger02
                    {
                      OFFSET 0.8229 -2.3 1.6571
                      CHANNELS 3 Zrotation Xrotation Yrotation
                      End Site
                      {
                        OFFSET 0.5822 -1.6914 1.1582
                      }
                    }
                  }
                }
              }
            }
          }
        }
      }
    }
  }
  JOINT RightHip
  {
    OFFSET -9.412 3.9771 -0.7758
    CHANNELS 3 Zrotation Xrotation Yrotation
    JOINT RightKnee
    {
      OFFSET -0.7531 -40.938 0
      CHANNELS 3 Zrotation Xrotation Yrotation
      JOINT RightAnkle
      {
        OFFSET 0 -40.1986 0
        CHANNELS 3 Zrotation Xrotation Yrotation
        JOINT RightToe
        {
          OFFSET 0 -4.4182 9.239
          CHANNELS 3 Zrotation Xrotation Yrotation
          End Site
          {
            OFFSET 0 0 6.1981
          }
        }
      }
    }
  }
  JOINT LeftHip
  {
    OFFSET 9.4119 3.9773 -0.7758
    CHANNELS 3 Zrotation Xrotation Yrotation
    JOINT LeftKnee
    {
      OFFSET 0.7532 -40.9383 0
      CHANNELS 3 Zrotation Xrotation Yrotation
      JOINT LeftAnkle
      {
        OFFSET 0 -40.1986 0
        CHANNELS 3 Zrotation Xrotation Yrotation
        JOINT LeftToe
        {
          OFFSET 0 -4.4182 9.239
          CHANNELS 3 Zrotation Xrotation Yrotation
          End Site
          {
            OFFSET 0 0 6.1981
          }
        }
      }
    }
  }
}
MOTION
Frames:	5
Frame Time:	0.0333333
5.80788e-005 67.184 3.4734 0 0 -0 0 0 -0 0 0 -0 0 0 -0 0 0 -0 0 0 -0 0 0 -12.5014 88.1196 14.2451 10.6914 -0.00160068 -0.00239207 0.000740045 -8.4365e-005 7.00714e-005 -9.52055e-007 9.93923e-017 -1.98785e-016 -1.59028e-015 9.93923e-017 -5.96354e-016 -1.59028e-015 -9.93923e-017 -5.96354e-016 -1.59028e-015 9.93923e-017 -1.98785e-016 -1.59028e-015 -0.0128176 0.00232552 8.52707e-005 9.93923e-017 5.96354e-016 -0 9.93923e-017 -1.98785e-016 -1.59028e-015 -0.0160551 0.00299681 0.000857156 -2.48481e-016 0 3.18055e-015 9.93923e-017 -1.98785e-016 -1.59028e-015 -0.0125865 0.0031206 0.00282719 0 1.98785e-016 -0 9.93923e-017 -1.98785e-016 -1.59028e-015 9.93923e-017 -5.96354e-016 -1.59028e-015 -9.93923e-017 -5.96354e-016 -1.59028e-015 -0.865644 0.16582 7.03859 -88.0329 10.2057 -10.5567 0.0015593 -0.00248883 -0.000788628 7.87605e-005 4.10553e-005 1.24965e-005 -3.97569e-016 -7.95139e-016 3.18055e-015 -1.98785e-016 -3.97569e-016 3.18055e-015 -1.98785e-016 0 3.18055e-015 -3.97569e-016 -7.95139e-016 3.18055e-015 0.0129473 0.00231697 -8.70038e-005 9.93923e-017 -7.95139e-016 1.59028e-015 -3.97569e-016 -7.95139e-016 3.18055e-015 0.0163314 0.00303369 -0.000872333 3.97569e-016 7.95139e-016 -3.18055e-015 -3.97569e-016 -7.95139e-016 3.18055e-015 0.0145763 0.00367772 -0.00326275 9.93923e-017 -3.97569e-016 -0 -3.97569e-016 -7.95139e-016 3.18055e-015 -1.98785e-016 -3.97569e-016 3.18055e-015 -1.98785e-016 0 3.18055e-015 3.42485 1.36937 -0.0640303 0.000136572 0.69354 0.00145564 -3.42573 -2.06297 -0.0607933 -3.19502e-024 0 -1.48106e-024 -3.42498 1.36123 0.0639712 -6.769e-005 0.712612 -0.0012277 3.42582 -2.07388 0.0612819 2.55305e-023 0 -2.31416e-026 
7.37381 19.4404 3.77038 66.6667 -7.70359e-008 2.64614e-008 -6.67118 -0.142692 0.0436032 -13.3424 -0.289483 0.0703347 -13.3424 -0.289484 0.0703348 -11.4324 19.9809 25.9495 0.0738301 0.050588 0.0712093 -5.92523 -0.0359668 -12.3026 86.3173 41.5381 -10.6554 -29.2934 -67.3249 -21.889 -39.1689 6.14229 1.69488 1.69299e-006 4.19762e-006 5.61293e-006 -1.59028e-015 -1.59028e-015 1.27222e-014 2.09559e-006 -1.45923e-006 9.44745e-007 1.69299e-006 4.19762e-006 5.61293e-006 -0.0128602 0.00233297 8.10982e-005 1.69198e-006 -3.39776e-006 5.613e-006 1.69299e-006 4.19762e-006 5.61293e-006 -0.0160951 0.00299939 0.000853506 -1.31817e-005 -2.00323e-006 3.05282e-006 1.69299e-006 4.19762e-006 5.61293e-006 -0.0125937 0.00312565 0.00282717 8.45959e-007 2.38836e-006 2.8066e-006 1.69299e-006 4.19762e-006 5.61293e-006 -1.59028e-015 -1.59028e-015 1.27222e-014 2.09559e-006 -1.45923e-006 9.44745e-007 5.0597 0.0216068 7.03641 -71.0752 36.6356 -0.87204 126.21 -80.8058 157.023 4.58522 0.948268 8.08789 3.18055e-015 -1.59028e-015 3.18055e-015 -3.18055e-015 -3.18055e-015 2.38542e-015 -3.18055e-015 -3.18055e-015 7.95139e-016 3.18055e-015 -1.59028e-015 3.18055e-015 0.0129426 0.0023154 -8.34943e-005 6.36111e-015 1.59028e-015 2.38542e-015 3.18055e-015 -1.59028e-015 3.18055e-015 0.0163462 0.00304082 -0.000872535 1.10348e-031 1.59028e-015 -3.97569e-015 3.18055e-015 -1.59028e-015 3.18055e-015 0.0145626 0.00366622 -0.00325759 -6.36111e-015 3.18055e-015 3.97569e-015 3.18055e-015 -1.59028e-015 3.18055e-015 -3.18055e-015 -3.18055e-015 2.38542e-015 -3.18055e-015 -3.18055e-015 7.95139e-016 -1.59085 -19.2729 -1.92302 2.43964 33.8764 -2.54146 -9.58448 25.5903 1.7595 1.8667e-005 5.77332e-006 2.56992e-006 -3.56142 -44.4951 50.7088 -2.65793 44.4047 3.55205 10.7506 22.946 -1.27212 7.69575e-007 -1.01798e-006 -2.67359e-006 
8.0472 -0.0693283 3.80965 96.6667 -9.03581e-008 4.77466e-008 -9.67248 -0.23046 0.072798 -19.345 -0.469877 0.105841 -19.345 -0.469878 0.105841 -22.6869 25.6019 39.7786 0.106892 0.0732746 0.10315 -8.59142 -0.0521496 -12.2132 85.3252 53.7088 -20.3204 -134.522 -72.7402 -124.297 -56.5054 8.09237 4.25791 1.59028e-015 -6.33977e-006 -3.18055e-015 3.97569e-015 -2.38542e-015 -6.36111e-015 5.56597e-015 -2.38542e-015 3.18055e-015 1.59028e-015 -6.33977e-006 -3.18055e-015 -0.0128216 0.00232432 9.37402e-005 9.93923e-015 1.19271e-015 3.18055e-015 1.59028e-015 -6.33977e-006 -3.18055e-015 -0.0160478 0.00298573 0.000874778 7.95139e-015 -3.57812e-015 6.36111e-015 1.59028e-015 -6.33977e-006 -3.18055e-015 -0.0125854 0.0031147 0.00283224 -2.38542e-015 -1.70955e-014 -3.18055e-015 1.59028e-015 -6.33977e-006 -3.18055e-015 3.97569e-015 -2.38542e-015 -6.36111e-015 5.56597e-015 -2.38542e-015 3.18055e-015 7.72618 -0.0432876 7.03543 -62.4962 48.2813 3.05161 -164.031 -43.6268 -120.505 6.6474 1.35878 11.7065 9.06955e-016 -7.95139e-016 3.93687e-015 3.95462e-006 9.87035e-006 -7.44538e-006 -4.28629e-016 0 2.87228e-015 9.06955e-016 -7.95139e-016 3.93687e-015 0.0129439 0.00231616 -8.87674e-005 2.60905e-016 1.59028e-015 -5.42154e-015 9.06955e-016 -7.95139e-016 3.93687e-015 0.0163239 0.00303417 -0.000878485 -2.60905e-016 7.95139e-016 9.34909e-016 9.06955e-016 -7.95139e-016 3.93687e-015 0.0145842 0.00367368 -0.00326732 1.49089e-016 1.59028e-015 6.80216e-016 9.06955e-016 -7.95139e-016 3.93687e-015 3.95462e-006 9.87035e-006 -7.44538e-006 -4.28629e-016 0 2.87228e-015 -4.41251 -30.2348 -3.08275 4.77332 51.6992 -4.80538 -12.9971 36.8191 2.58607 1.98785e-016 3.18055e-015 -7.95139e-016 16.7004 -41.1147 83.0402 -4.93287 60.8147 6.31452 14.5036 35.8971 -2.09316 -1.14325e-005 4.05885e-006 -7.84669e-006 
8.08689 4.24429 3.80778 90 -3.30047e-008 -6.99352e-009 -9.00559 -0.209664 0.065675 -18.0111 -0.427026 0.0977221 -18.0112 -0.427026 0.0977221 -19.9828 24.6537 36.6699 0.0992706 0.0680422 0.0957765 -7.99896 -0.0485537 -12.2331 85.5597 51.0106 -18.1745 -112.373 -76.7813 -102.183 -51.5655 7.22663 4.37354 3.97569e-015 -1.35174e-014 -0 -7.95139e-016 -1.43125e-014 3.18055e-015 3.18055e-015 -6.36111e-015 -6.36111e-015 3.97569e-015 -1.35174e-014 -0 -0.0128301 0.00232948 8.81105e-005 -3.18055e-015 -1.59028e-015 -0 3.97569e-015 -1.35174e-014 -0 -0.0160257 0.00299535 0.00085204 4.77083e-015 7.15625e-015 -3.18055e-015 3.97569e-015 -1.35174e-014 -0 -0.0125986 0.00312844 0.00282773 2.38542e-015 -8.74653e-015 -0 3.97569e-015 -1.35174e-014 -0 -7.95139e-016 -1.43125e-014 3.18055e-015 3.18055e-015 -6.36111e-015 -6.36111e-015 7.13362 -0.0288675 7.03565 -64.4771 45.7077 2.23045 -169.069 -52.8808 -128.236 6.19013 1.26843 10.9032 -4.26257e-006 -9.61593e-006 3.03296e-006 1.33452e-031 -1.19271e-015 6.41081e-015 -7.95139e-016 -7.95139e-016 2.93207e-015 -4.26257e-006 -9.61593e-006 3.03296e-006 0.0129665 0.00232987 -8.90161e-005 7.95139e-016 1.23246e-014 1.14301e-015 -4.26257e-006 -9.61593e-006 3.03296e-006 0.016329 0.0030446 -0.00087074 -1.59028e-015 -7.95139e-016 3.52843e-015 -4.26257e-006 -9.61593e-006 3.03296e-006 0.0146076 0.00367756 -0.00325988 -3.73216e-006 -1.18465e-006 -8.08717e-006 -4.26257e-006 -9.61593e-006 3.03296e-006 1.33452e-031 -1.19271e-015 6.41081e-015 -7.95139e-016 -7.95139e-016 2.93207e-015 -3.78815 -27.8266 -2.79913 4.14521 47.8394 -4.1809 -12.1763 34.2546 2.38455 -3.37934e-015 -9.54166e-015 -1.98785e-016 12.7439 -43.3652 76.9765 -4.24666 57.1837 5.53008 13.6307 33.0208 -1.89222 5.4478e-006 -2.49176e-006 8.75606e-006 
8.08689 4.24429 3.80778 90 -3.30047e-008 -6.99352e-009 -9.00559 -0.209664 0.065675 -18.0111 -0.427026 0.0977221 -18.0112 -0.427026 0.0977221 -20.0543 24.6649 36.737 0.0990645 0.0678926 0.0955867 -7.99896 -0.0485537 -12.2331 85.5597 51.0105 -18.1745 -112.411 -76.7618 -101.735 -50.6768 6.8392 4.99655 -7.95139e-015 -1.59028e-015 -0 1.79028e-006 -3.64269e-006 5.54732e-006 -1.79028e-006 5.76159e-006 -5.54732e-006 -7.95139e-015 -1.59028e-015 -0 -0.0128196 0.00231565 9.3199e-005 -1.12087e-006 7.19824e-006 6.24179e-006 -7.95139e-015 -1.59028e-015 -0 -0.0160514 0.00299529 0.000859647 -3.82531e-006 2.86962e-006 4.36139e-006 -7.95139e-015 -1.59028e-015 -0 -0.0125987 0.00311859 0.00283963 3.2039e-006 1.00929e-005 -5.92374e-006 -7.95139e-015 -1.59028e-015 -0 1.79028e-006 -3.64269e-006 5.54732e-006 -1.79028e-006 5.76159e-006 -5.54732e-006 7.13362 -0.0288675 7.03565 -64.4771 45.7077 2.23045 -169.069 -52.8808 -128.236 6.19027 1.26845 10.9032 -7.95139e-016 1.31198e-014 1.73937e-015 4.41391e-032 1.27222e-014 -1.98785e-016 7.95139e-016 1.23246e-014 4.47266e-015 -7.95139e-016 1.31198e-014 1.73937e-015 0.0129568 0.00230926 -8.80292e-005 -3.10353e-033 -3.97569e-016 -4.47266e-016 -7.95139e-016 1.31198e-014 1.73937e-015 0.0163406 0.00302296 -0.000880617 7.95139e-016 -1.19271e-015 -2.73329e-015 -7.95139e-016 1.31198e-014 1.73937e-015 0.0145966 0.00366882 -0.00326353 -3.97569e-015 -1.19271e-015 3.42904e-015 -7.95139e-016 1.31198e-014 1.73937e-015 4.41391e-032 1.27222e-014 -1.98785e-016 7.95139e-016 1.23246e-014 4.47266e-015 -3.78815 -27.8267 -2.79911 4.14522 47.8393 -4.18092 -12.1763 34.2546 2.38456 1.33428e-006 3.45291e-007 -4.03847e-006 12.7438 -43.3651 76.9765 -4.24666 57.1836 5.53007 13.6307 33.0208 -1.89223 -6.36111e-015 6.24995e-008 -6.36111e-015 
